<svg id="svg8" height="512" viewBox="0 0 12.7 12.7" width="512" xmlns="http://www.w3.org/2000/svg" xmlns:svg="http://www.w3.org/2000/svg"><g id="layer2"><path id="rect1900" d="m4.6395104.5296835c-.567738 0-1.064328.331462-1.306897.809253-.151891.256082-.06259.586654.197404.731738.254716.142095.576471.05171.719336-.202571.04912-.168465.199665-.281637.390157-.281637h6.0662956c.23423 0 .406177.171946.406177.406177v6.068363c0 .183495-.105741.327565-.264067.381889-.254286.142864-.344667.465137-.202572.719853.145086.26.475656.349295.731739.197404.469608-.244931.79375-.737887.79375-1.299146v-6.068363c0-.802241-.662786-1.46296-1.465027-1.46296zm-2.645317 2.646867c-.802241 0-1.46502698.660202-1.46502698 1.462443v6.0683635c0 .802241.66278598 1.46296 1.46502698 1.46296h6.066296c.802241 0 1.465027-.660719 1.465027-1.46296v-6.0683635c0-.802241-.662786-1.462443-1.465027-1.462443zm0 1.056266h6.066296c.234231 0 .406177.171946.406177.406177v6.0683635c0 .234231-.171946.406694-.406177.406694h-6.066296c-.23423 0-.406177-.172463-.406177-.406694v-6.0683635c0-.234231.171947-.406177.406177-.406177z" font-variant-ligatures="normal" font-variant-position="normal" font-variant-caps="normal" font-variant-numeric="normal" font-variant-alternates="normal" font-feature-settings="normal" text-indent="0" text-align="start" text-decoration-line="none" text-decoration-style="solid" text-decoration-color="rgb(0,0,0)" text-transform="none" text-orientation="mixed" white-space="normal" shape-padding="0" isolation="auto" mix-blend-mode="normal" solid-color="rgb(0,0,0)" solid-opacity="1" vector-effect="none" paint-order="normal"/></g></svg>