<svg id="OBJECT" viewBox="0 0 32 32" xmlns="http://www.w3.org/2000/svg"><path d="m12.5 6.45h7c.55 0 1-.45 1-1s-.45-1-1-1h-7c-.55 0-1 .45-1 1s.45 1 1 1z"/><path d="m6.5 10h1c.55 0 1-.45 1-1s-.45-1-1-1h-1c-.55 0-1 .45-1 1s.45 1 1 1z"/><path d="m25.5 7.97h-15c-.55 0-1 .45-1 1s.45 1 1 1h15c.55 0 1-.45 1-1s-.45-1-1-1z"/><path d="m6.5 13.48h1c.55 0 1-.45 1-1s-.45-1-1-1h-1c-.55 0-1 .45-1 1s.45 1 1 1z"/><path d="m13.5 11.48h-3c-.55 0-1 .45-1 1s.45 1 1 1h3c.55 0 1-.45 1-1s-.45-1-1-1z"/><path d="m12 15h-5.5c-.55 0-1 .45-1 1s.45 1 1 1h5.5c.55 0 1-.45 1-1s-.45-1-1-1z"/><path d="m28.5 1h-25c-1.38 0-2.5 1.12-2.5 2.5v15c0 1.38 1.12 2.5 2.5 2.5h11.78c.27.46.59.89.96 1.27l-.83 7.62c-.04.41.17.81.54 1s.81.13 1.12-.14l3.96-3.52 3.96 3.52c.19.17.42.25.66.25.16 0 .31-.04.46-.11.37-.19.58-.59.54-1l-.83-7.62c.37-.38.69-.81.96-1.27h1.72c1.38 0 2.5-1.12 2.5-2.5v-15c0-1.38-1.12-2.5-2.5-2.5zm-7.47 21.31c-2.57 0-4.66-2.09-4.66-4.66s2.09-4.66 4.66-4.66 4.66 2.09 4.66 4.66-2.09 4.66-4.66 4.66zm-2.93 1.31c.6.29 1.25.5 1.93.6v1.2l-2.35 2.09.43-3.9zm3.93 1.81v-1.21c.68-.1 1.33-.31 1.93-.6l.43 3.9-2.35-2.09zm6.97-6.94c0 .28-.22.5-.5.5h-.95c.09-.43.14-.88.14-1.34 0-3.67-2.99-6.66-6.66-6.66s-6.66 2.99-6.66 6.66c0 .46.05.91.14 1.34h-11.01c-.28 0-.5-.22-.5-.5v-14.99c0-.28.22-.5.5-.5h25c.28 0 .5.22.5.5v15z"/><path d="m21.03 14.27c-1.87 0-3.38 1.52-3.38 3.38s1.52 3.38 3.38 3.38 3.38-1.52 3.38-3.38-1.52-3.38-3.38-3.38zm0 4.77c-.76 0-1.38-.62-1.38-1.38s.62-1.38 1.38-1.38 1.38.62 1.38 1.38-.62 1.38-1.38 1.38z"/></svg>